<svg width="15" height="15" viewBox="0 0 15 15" fill="none" xmlns="http://www.w3.org/2000/svg">
<path d="M7.50027 12.3957L4.04194 14.479C3.88916 14.5762 3.72944 14.6179 3.56277 14.604C3.39611 14.5901 3.25027 14.5346 3.12527 14.4373C3.00027 14.3401 2.90305 14.2187 2.83361 14.0732C2.76416 13.9276 2.75027 13.7643 2.79194 13.5832L3.70861 9.64567L0.646107 6.99984C0.507219 6.87484 0.420552 6.73234 0.386107 6.57234C0.351663 6.41234 0.361941 6.25623 0.416941 6.104C0.471941 5.95178 0.555274 5.82678 0.666941 5.729C0.778607 5.63123 0.931385 5.56873 1.12527 5.5415L5.16694 5.18734L6.72944 1.479C6.79888 1.31234 6.90666 1.18734 7.05277 1.104C7.19889 1.02067 7.34805 0.979004 7.50027 0.979004C7.6525 0.979004 7.80166 1.02067 7.94777 1.104C8.09388 1.18734 8.20166 1.31234 8.27111 1.479L9.83361 5.18734L13.8753 5.5415C14.0697 5.56928 14.2225 5.63178 14.3336 5.729C14.4447 5.82623 14.5281 5.95123 14.5836 6.104C14.6392 6.25678 14.6497 6.41317 14.6153 6.57317C14.5808 6.73317 14.4939 6.87539 14.3544 6.99984L11.2919 9.64567L12.2086 13.5832C12.2503 13.7637 12.2364 13.9271 12.1669 14.0732C12.0975 14.2193 12.0003 14.3407 11.8753 14.4373C11.7503 14.534 11.6044 14.5896 11.4378 14.604C11.2711 14.6184 11.1114 14.5768 10.9586 14.479L7.50027 12.3957Z" fill="#FFAB0D"/>
</svg>
