<svg width="20" height="20" viewBox="0 0 20 20" fill="none" xmlns="http://www.w3.org/2000/svg">
<path fill-rule="evenodd" clip-rule="evenodd" d="M2.53125 9.37417C1.52708 9.37417 0.659167 8.50917 0.65625 7.37292L0.657917 7.34667C0.659306 7.31806 0.664583 7.26459 0.67375 7.18625C0.692917 7.02834 0.733333 6.76667 0.817917 6.37792C0.987083 5.59959 1.33083 4.31792 2.02833 2.34625C2.315 1.535 2.98333 0.976251 3.79083 0.889585C7.93948 0.449565 12.123 0.449565 16.2717 0.889585C17.0792 0.976251 17.7475 1.53542 18.0342 2.34625C18.7317 4.31792 19.0758 5.59959 19.2446 6.37792C19.3292 6.76667 19.3696 7.02834 19.3887 7.18625C19.3966 7.24827 19.4024 7.31052 19.4062 7.37292C19.4033 8.50917 18.5354 9.37417 17.5312 9.37417C16.5254 9.37417 15.6562 8.50625 15.6562 7.3675C15.6562 7.20174 15.5904 7.04277 15.4732 6.92556C15.356 6.80835 15.197 6.7425 15.0312 6.7425C14.8655 6.7425 14.7065 6.80835 14.5893 6.92556C14.4721 7.04277 14.4062 7.20174 14.4062 7.3675C14.4062 8.50625 13.5371 9.37417 12.5312 9.37417C11.5254 9.37417 10.6562 8.50625 10.6562 7.3675C10.6562 7.20174 10.5904 7.04277 10.4732 6.92556C10.356 6.80835 10.197 6.7425 10.0312 6.7425C9.86549 6.7425 9.70652 6.80835 9.58931 6.92556C9.4721 7.04277 9.40625 7.20174 9.40625 7.3675C9.40625 8.50625 8.53708 9.37417 7.53125 9.37417C6.52542 9.37417 5.65625 8.50625 5.65625 7.3675C5.65625 7.20174 5.5904 7.04277 5.47319 6.92556C5.35598 6.80835 5.19701 6.7425 5.03125 6.7425C4.86549 6.7425 4.70652 6.80835 4.58931 6.92556C4.4721 7.04277 4.40625 7.20174 4.40625 7.3675C4.40625 8.50625 3.53708 9.37417 2.53125 9.37417ZM1.45792 10.43V12.5008C1.45792 14.3704 1.53292 15.7704 1.6175 16.7525C1.73583 18.1308 2.83 19.1413 4.18417 19.2242C5.42208 19.3 7.32833 19.3758 9.99958 19.3758C12.6704 19.3758 14.5771 19.3 15.815 19.2242C17.1692 19.1408 18.2633 18.1308 18.3817 16.7525C18.4662 15.7704 18.5412 14.3704 18.5412 12.5008V10.4533C18.217 10.5685 17.8753 10.627 17.5312 10.6263C16.4967 10.6263 15.5967 10.1096 15.0312 9.32292C14.4662 10.1092 13.5658 10.6263 12.5312 10.6263C11.4967 10.6263 10.5967 10.1096 10.0312 9.32292C9.46625 10.1092 8.56583 10.6263 7.53125 10.6263C6.49667 10.6263 5.59667 10.1096 5.03125 9.32292C4.46625 10.1092 3.56583 10.6263 2.53125 10.6263C2.16448 10.627 1.80069 10.5605 1.45792 10.43ZM9.99958 13.1258C9.03167 13.1258 8.3625 13.1967 7.91625 13.2767C7.61375 13.3308 7.38208 13.5808 7.3575 14.0183C7.32292 14.6363 7.29125 15.6071 7.29125 17.0842C7.29125 17.4175 7.55792 17.6867 7.8825 17.6921C8.52472 17.7032 9.23042 17.7089 9.99958 17.7092C10.769 17.7089 11.4747 17.7032 12.1167 17.6921C12.2751 17.6882 12.4258 17.6223 12.5363 17.5087C12.6468 17.3951 12.7084 17.2427 12.7079 17.0842C12.7079 15.6071 12.6762 14.6363 12.6417 14.0183C12.6175 13.5808 12.3854 13.3308 12.0833 13.2767C11.6367 13.1967 10.9675 13.1258 9.99958 13.1258Z" fill="#0A0D12"/>
</svg>
