<svg width="21" height="20" viewBox="0 0 21 20" fill="none" xmlns="http://www.w3.org/2000/svg">
<path d="M9.62447 11.1917L8.1278 9.70005C8.05002 9.62228 7.9553 9.58061 7.84363 9.57505C7.73141 9.5695 7.62947 9.61283 7.5378 9.70505C7.44891 9.79394 7.40447 9.89228 7.40447 10.0001C7.40447 10.1078 7.44891 10.2062 7.5378 10.2951L9.1528 11.9101C9.2878 12.0445 9.44502 12.1117 9.62447 12.1117C9.80391 12.1117 9.96113 12.0445 10.0961 11.9101L13.4611 8.54505C13.5422 8.46394 13.5847 8.36839 13.5886 8.25839C13.5925 8.14783 13.55 8.04672 13.4611 7.95505C13.3695 7.86339 13.2703 7.81672 13.1636 7.81505C13.057 7.81339 12.9581 7.85839 12.867 7.95005L9.62447 11.1917ZM7.72447 17.1801L6.6278 15.3467L4.5603 14.9101C4.39474 14.8795 4.2628 14.7906 4.16447 14.6434C4.06613 14.4967 4.02558 14.3406 4.0428 14.1751L4.2403 12.0451L2.8378 10.4451C2.72002 10.3245 2.66113 10.1762 2.66113 10.0001C2.66113 9.82394 2.72002 9.67561 2.8378 9.55505L4.2403 7.95505L4.0428 5.82589C4.02613 5.65978 4.06669 5.50339 4.16447 5.35672C4.2628 5.21005 4.39474 5.12116 4.5603 5.09005L6.62697 4.65422L7.72363 2.82089C7.81363 2.672 7.93447 2.56922 8.08613 2.51255C8.2378 2.45533 8.39474 2.46283 8.55697 2.53505L10.4995 3.35589L12.4411 2.53505C12.6039 2.46283 12.7611 2.45533 12.9128 2.51255C13.0645 2.56922 13.1853 2.672 13.2753 2.82089L14.3711 4.65422L16.4386 5.09005C16.6042 5.12116 16.7361 5.21005 16.8345 5.35672C16.9328 5.50339 16.9734 5.65978 16.9561 5.82589L16.7595 7.95505L18.1611 9.55505C18.2789 9.67561 18.3378 9.82394 18.3378 10.0001C18.3378 10.1762 18.2789 10.3248 18.1611 10.4459L16.7595 12.0451L16.9561 14.1742C16.9728 14.3403 16.9322 14.4967 16.8345 14.6434C16.7361 14.7906 16.6042 14.8795 16.4386 14.9101L14.372 15.3467L13.2753 17.1801C13.1853 17.3284 13.0645 17.4312 12.9128 17.4884C12.7611 17.5456 12.6042 17.5378 12.442 17.4651L10.4995 16.6442L8.5578 17.4651C8.39502 17.5373 8.2378 17.5448 8.08613 17.4876C7.93447 17.4309 7.81363 17.3281 7.72363 17.1792" fill="#176FFB"/>
</svg>
