<svg width="30" height="10" viewBox="0 0 30 10" fill="none" xmlns="http://www.w3.org/2000/svg">
<path d="M4.55172 7.23354C4.55172 6.86343 4.55574 5.87417 4.54662 5.75228C4.55457 4.28023 3.48427 3.24183 2.8081 3.32278C2.34022 3.36339 1.9481 3.55417 1.73755 4.10301C1.54241 4.61451 1.71688 5.29486 2.36567 5.45451C3.05942 5.62596 3.46451 5.76861 3.75768 5.96985C4.11691 6.21623 4.41016 6.68696 4.41795 7.23412" fill="#0060AF"/>
<path d="M4.8283 9.47156C3.60506 9.47156 2.34791 9.17028 1.09243 8.57439L1.06163 8.55924L1.04689 8.52785C0.483489 7.33858 0.185547 6.03782 0.185547 4.76519C0.185547 3.49447 0.471267 2.24937 1.03509 1.06171L1.05058 1.03015L1.08197 1.01441C2.24335 0.464235 3.49271 0.185547 4.79649 0.185547C6.01103 0.185547 7.30811 0.495795 8.54693 1.08431L8.57874 1.09846L8.59339 1.13061C9.16759 2.3418 9.47039 3.64223 9.47039 4.89377C9.47039 6.14046 9.17965 7.38664 8.60478 8.59707L8.58963 8.62889L8.55765 8.64362C7.41401 9.18501 6.1243 9.47156 4.8283 9.47156ZM1.20863 8.41131C2.42828 8.98501 3.64466 9.27475 4.8283 9.27475C6.08336 9.27475 7.33155 9.00041 8.44262 8.48038C8.99456 7.30744 9.27433 6.10027 9.27433 4.89377C9.27433 3.68241 8.98233 2.42233 8.42998 1.2468C7.22775 0.681642 5.97219 0.381942 4.79649 0.381942C3.53424 0.381942 2.32439 0.649663 1.19808 1.17782C0.657449 2.32899 0.382278 3.53524 0.382278 4.76519C0.382278 5.99747 0.668248 7.25805 1.20863 8.41131Z" fill="#0060AF"/>
<path d="M4.26089 7.23516C4.26315 6.76075 3.99836 6.34125 3.65228 6.1158C3.3453 5.91656 2.93317 5.78563 2.26831 5.61703C2.06278 5.56446 1.8478 5.44768 1.78125 5.29883C1.6052 5.47622 1.57322 5.87504 1.60419 6.1081C1.64019 6.37783 1.95538 6.82236 2.42996 6.83977C2.71978 6.85141 3.0862 6.7774 3.26192 6.74007C3.56505 6.6746 4.04466 6.86447 4.121 7.23457" fill="#0060AF"/>
<path d="M4.79608 1.0293C3.99141 1.0293 3.29632 1.55997 3.29883 2.47824C3.30135 3.25043 3.92235 3.66381 4.14394 3.95908C4.4788 4.40402 4.66004 4.93067 4.67888 5.73652C4.69353 6.37786 4.69278 7.01116 4.69604 7.2356H4.87368C4.87059 7.00078 4.86255 6.32847 4.87176 5.71667C4.88381 4.91058 5.07158 4.40402 5.40661 3.95908C5.63013 3.66381 6.25063 3.25043 6.25197 2.47824C6.25498 1.55997 5.56031 1.0293 4.75631 1.0293" fill="#0060AF"/>
<path d="M5.00098 7.23354C5.00098 6.86343 4.99679 5.87417 5.00575 5.75228C4.99788 4.28023 6.06751 3.24183 6.74426 3.32278C7.21215 3.36339 7.60385 3.55417 7.81498 4.10301C8.00995 4.61451 7.83448 5.29486 7.18645 5.45451C6.49236 5.62596 6.08777 5.76861 5.79384 5.96985C5.43504 6.21623 5.1623 6.68696 5.15393 7.23412" fill="#0060AF"/>
<path d="M5.29103 7.23516C5.28852 6.76075 5.55323 6.34125 5.8983 6.1158C6.20654 5.91656 6.61917 5.78563 7.28345 5.61703C7.48939 5.56446 7.70412 5.44768 7.7695 5.29883C7.94639 5.47622 7.97829 5.87504 7.94731 6.1081C7.91056 6.37783 7.59621 6.82236 7.12247 6.83977C6.83273 6.85141 6.46438 6.7774 6.28942 6.74007C5.98746 6.6746 5.50652 6.86447 5.42983 7.23457" fill="#0060AF"/>
<path d="M5.53852 8.76627L5.43555 8.01493L5.6841 7.97726C5.74462 7.96897 5.81829 7.97951 5.84776 8.01744C5.88032 8.05704 5.89029 8.08977 5.89657 8.14167C5.90594 8.20588 5.88736 8.28014 5.81503 8.31714V8.31939C5.89581 8.31939 5.94462 8.37741 5.95877 8.47536C5.96086 8.49603 5.96697 8.54601 5.96086 8.5877C5.94445 8.6869 5.88526 8.7188 5.78539 8.73278L5.53852 8.76627ZM5.6985 8.63175C5.72796 8.62754 5.75785 8.62597 5.78121 8.61106C5.81695 8.58771 5.81369 8.53773 5.80875 8.50065C5.79627 8.41911 5.77501 8.38814 5.68853 8.40094L5.6342 8.40931L5.66861 8.63593L5.6985 8.63175ZM5.64643 8.28457C5.67933 8.27924 5.72394 8.27528 5.74253 8.24406C5.75224 8.22321 5.76471 8.20664 5.75651 8.16026C5.74638 8.10526 5.72813 8.07119 5.65831 8.08441L5.59327 8.09488L5.61888 8.28743" fill="#0060AF"/>
<path d="M6.61568 8.31372C6.61761 8.32771 6.61987 8.34328 6.62071 8.35725C6.6408 8.4943 6.61568 8.60773 6.46165 8.63896C6.23394 8.68283 6.19033 8.54134 6.15023 8.34328L6.12888 8.23612C6.09749 8.04658 6.08401 7.9031 6.30602 7.8589C6.43118 7.83605 6.51389 7.88585 6.54829 8.01042C6.55365 8.02901 6.56035 8.04743 6.56286 8.06609L6.42666 8.09422C6.41092 8.04743 6.39007 7.9638 6.32879 7.97083C6.21879 7.98405 6.25512 8.12093 6.26642 8.1781L6.30736 8.38379C6.31967 8.446 6.34411 8.54536 6.4393 8.52619C6.51657 8.5107 6.48291 8.39032 6.47605 8.34102" fill="#0060AF"/>
<path d="M6.83424 8.54041L6.78711 7.76287L6.97011 7.70703L7.35378 8.38329L7.2097 8.42639L7.11879 8.25453L6.95881 8.30258L6.97949 8.49797L6.83424 8.54041ZM6.94541 8.17701L7.06102 8.14352L6.90749 7.82892" fill="#0060AF"/>
<path d="M2.31426 7.9544C2.37152 7.77106 2.42284 7.63611 2.64133 7.69605C2.75828 7.7287 2.83078 7.78027 2.82735 7.91614C2.82678 7.94636 2.8168 7.97716 2.81027 8.00705L2.67423 7.96947C2.69206 7.89446 2.70337 7.83494 2.61094 7.80647C2.50412 7.77717 2.47809 7.90668 2.46336 7.9626L2.40802 8.16645C2.39044 8.22698 2.36934 8.32701 2.46336 8.3528C2.54104 8.37372 2.58817 8.29746 2.6163 8.18612L2.52112 8.16092L2.55402 8.04297L2.77779 8.11496L2.67155 8.50784L2.56859 8.47988L2.59177 8.39683H2.58884C2.54146 8.46473 2.48361 8.47184 2.43296 8.46213C2.20919 8.4016 2.23255 8.25535 2.28596 8.05996" fill="#0060AF"/>
<path d="M3.14682 8.28569L3.07943 8.60531L2.92773 8.5725L3.08939 7.82617L3.34798 7.88461C3.49934 7.91726 3.54505 7.98465 3.52362 8.12337C3.5114 8.20298 3.47213 8.28878 3.37628 8.28184L3.37528 8.28053C3.45631 8.30891 3.46318 8.34976 3.44903 8.42042C3.44292 8.45047 3.40081 8.63289 3.42986 8.66236L3.43086 8.68471L3.2739 8.64377C3.26737 8.59321 3.28955 8.5023 3.29834 8.45198C3.30721 8.40745 3.32136 8.34466 3.27616 8.32105C3.24074 8.30221 3.2276 8.30314 3.18759 8.29393L3.14682 8.28569ZM3.17268 8.17008L3.27482 8.19762C3.33685 8.20658 3.37134 8.17443 3.38356 8.09951C3.39461 8.03077 3.3803 8.0039 3.32463 7.99059L3.21513 7.96841" fill="#0060AF"/>
<path d="M4.1191 7.99303L4.26912 8.01044L4.20449 8.53509C4.1731 8.70143 4.10881 8.77418 3.92581 8.7514C3.73962 8.72788 3.69542 8.64308 3.70672 8.47539L3.77177 7.95117L3.92296 7.9685L3.85808 8.481C3.85121 8.53667 3.83832 8.61913 3.93736 8.62909C4.02517 8.63579 4.0451 8.57761 4.05498 8.50528" fill="#0060AF"/>
<path d="M4.43555 8.77955L4.48067 8.0293L4.7689 8.04177C4.90511 8.04847 4.94077 8.15972 4.9365 8.26588C4.93256 8.33042 4.91239 8.4025 4.85613 8.4416C4.81 8.47483 4.75073 8.4827 4.69573 8.48002L4.6018 8.47481L4.58305 8.78924L4.43555 8.77955ZM4.60607 8.36039L4.68242 8.36466C4.74446 8.36691 4.78556 8.34239 4.79092 8.25131C4.79393 8.16383 4.76086 8.14901 4.6805 8.1455L4.61997 8.14342" fill="#0060AF"/>
<path d="M24.763 1.75339L23.6175 3.83262C23.1851 3.48152 22.6571 3.22309 21.9834 3.22309C20.3892 3.22309 19.7417 4.41143 19.7417 5.2485C19.7417 5.86983 20.1486 6.78659 21.567 6.78659C22.1624 6.78659 23.0089 6.37237 23.2525 6.18393L22.1195 8.59618C21.5794 8.70392 21.402 8.77073 20.9449 8.78487C18.406 8.86064 17.3801 7.30103 17.3809 5.70734C17.3825 3.60056 19.2557 1.03838 22.3608 1.03838C22.5511 1.03838 22.7838 1.10418 22.9828 1.17709L23.1839 0.919922" fill="#0060AF"/>
<path d="M29.4911 0.986328L29.8155 8.54346H27.4013L27.3999 7.24738H25.7537L25.2119 8.54346H22.5938L25.331 3.14702L24.7138 3.143L25.8865 0.986328H29.4911ZM27.3843 3.29821L26.4535 5.49631H27.4123" fill="#0060AF"/>
<path d="M15.8568 0.985399C17.0523 0.992095 17.7279 1.64105 17.7279 2.5785C17.7279 3.44269 17.0154 4.20768 16.2333 4.60323C17.0385 4.89925 17.1082 5.6259 17.1082 6.13999C17.1082 7.38199 15.8619 8.54253 14.2419 8.54253H10.709L12.0871 3.22126L11.521 3.218L12.6782 0.985399C12.6782 0.985399 14.8846 0.978701 15.8568 0.985399ZM14.6839 4.04937C14.9312 4.04937 15.3678 3.98675 15.477 3.50815C15.5966 2.98862 15.1868 2.97464 14.9903 2.97464L14.2879 2.97156L14.0429 4.0494L14.6839 4.04937ZM13.6908 5.3848L13.3674 6.62679H14.1945C14.5199 6.62679 14.9633 6.46531 15.072 6.06113C15.1793 5.65578 14.8693 5.3848 14.5451 5.3848" fill="#0060AF"/>
</svg>
