<svg width="30" height="10" viewBox="0 0 30 10" fill="none" xmlns="http://www.w3.org/2000/svg">
<path fill-rule="evenodd" clip-rule="evenodd" d="M0.1875 3.56836L2.68713 6.72155L0.1875 8.79285V3.56836Z" fill="#F15A23"/>
<path fill-rule="evenodd" clip-rule="evenodd" d="M1.19336 8.79414L3.07421 7.2207L4.37421 8.79414H1.19336Z" fill="#F15A23"/>
<path fill-rule="evenodd" clip-rule="evenodd" d="M0.1875 1.88226L0.839811 2.7074L3.52187 6.05885L4.39096 5.36678C4.39096 5.36678 3.66946 4.51735 3.185 3.56949C2.23784 1.7163 2.90841 0.5625 2.90841 0.5625H0.1875V1.88226Z" fill="#F15A23"/>
<path fill-rule="evenodd" clip-rule="evenodd" d="M3.9043 6.57679L4.7894 5.8457C4.7894 5.8457 5.63474 6.95847 6.61493 7.22111C7.89941 7.56529 8.46812 6.72324 8.46812 6.72324V8.79454H5.64685L6.28302 8.24451C6.28302 8.24451 5.9511 8.46579 5.13934 7.90351C4.66022 7.57165 3.9043 6.57679 3.9043 6.57679Z" fill="#F15A23"/>
<path fill-rule="evenodd" clip-rule="evenodd" d="M3.98561 0.556641C3.98561 0.556641 3.70325 0.941289 3.90424 1.88243C4.11907 2.88838 4.97346 3.95307 4.97147 3.92924C4.97147 3.92924 5.0264 2.87205 5.64679 2.25165C6.96917 0.929275 8.46807 1.71647 8.46807 1.71647V0.562676L3.98561 0.556641Z" fill="#F15A23"/>
<path fill-rule="evenodd" clip-rule="evenodd" d="M8.46786 3.11084C8.46786 3.11084 7.63159 2.39453 6.90453 2.39453C5.97446 2.39453 5.4668 3.19749 5.4668 3.77995C5.4668 4.62835 5.87402 5.09976 6.28275 5.50849C6.87013 6.09587 7.58472 6.72937 8.46786 6.21949C8.46786 5.25448 8.46786 3.11084 8.46786 3.11084Z" fill="#F15A23"/>
<path fill-rule="evenodd" clip-rule="evenodd" d="M17.9922 0.642578H19.9656C19.9656 0.642578 21.7138 3.28957 22.5729 4.38319C23.4321 5.47682 24.3568 6.72249 24.3568 6.72249C24.3568 6.72249 24.3568 3.11018 24.3568 1.23537C24.3568 0.998385 23.7346 0.642578 23.7346 0.642578H26.0102C26.0102 0.642578 25.2635 0.949353 25.2635 1.23537C25.2635 3.5693 25.2635 9.21784 25.2635 9.21784C25.2635 9.21784 24.5471 8.82054 23.7346 7.87645C22.8217 6.8157 19.5745 2.53319 19.5745 2.53319C19.5745 2.53319 19.5745 6.57604 19.5745 8.08003C19.5745 8.3641 20.1967 8.7938 20.1967 8.7938H17.9922C17.9922 8.7938 18.5967 8.36063 18.5967 8.08003C18.5967 6.05866 18.5967 3.11018 18.5967 1.23537C18.5967 0.983471 17.9922 0.642578 17.9922 0.642578Z" fill="#005E6A"/>
<path fill-rule="evenodd" clip-rule="evenodd" d="M27.2852 0.642578H29.8179C29.8179 0.642578 29.1378 0.964718 29.1378 1.23537C29.1378 3.11018 29.1378 6.21883 29.1378 8.08003C29.1378 8.3758 29.8179 8.7938 29.8179 8.7938H27.2852C27.2852 8.7938 27.9183 8.36627 27.9183 8.08003C27.9183 5.84496 27.9183 3.11018 27.9183 1.23537C27.9183 0.97516 27.2852 0.642578 27.2852 0.642578Z" fill="#005E6A"/>
<path fill-rule="evenodd" clip-rule="evenodd" d="M10.541 0.642578C10.541 0.642578 11.1976 0.969981 11.1976 1.23537C11.1976 3.11018 11.1976 5.84496 11.1976 8.08003C11.1976 8.37099 10.541 8.7938 10.541 8.7938C10.541 8.7938 13.8214 8.7938 14.2932 8.7938C14.5277 8.7938 17.1542 8.36431 17.1542 6.33937C17.1542 4.31443 15.114 4.12482 15.114 4.12482C15.114 4.12482 16.3569 3.77929 16.3569 2.39387C16.3569 0.90054 14.5277 0.642578 14.2932 0.642578C13.8058 0.642578 10.541 0.642578 10.541 0.642578ZM12.5344 3.99063V1.44231C12.5344 1.44231 13.622 1.44231 14.0587 1.44231C14.2932 1.44231 15.114 1.71612 15.114 2.73198C15.114 3.5693 14.2932 3.99063 14.0587 3.99063C13.527 3.99063 12.5344 3.99063 12.5344 3.99063ZM12.5344 4.65899C12.5344 4.65899 14.0587 4.65899 14.2932 4.65899C14.5277 4.65899 15.9113 5.01838 15.9113 6.21883C15.9113 7.44273 14.5277 7.87645 14.2932 7.87645C14.0587 7.87645 12.5344 7.87645 12.5344 7.87645V4.65899Z" fill="#005E6A"/>
</svg>
