<svg width="30" height="12" viewBox="0 0 30 12" fill="none" xmlns="http://www.w3.org/2000/svg">
<path d="M9.68038 0.443664H1.89545C0.951496 0.443664 0.185547 1.2281 0.185547 2.19701V9.90463C0.185547 10.8646 0.936347 11.6442 1.86983 11.658L9.67481 11.6582C10.6188 11.6582 11.3865 10.8735 11.3865 9.90463L11.3903 2.19701C11.3903 1.2281 10.6241 0.443664 9.68038 0.443664ZM2.8207 10.7597L2.39584 10.7648C1.88142 10.7648 1.46614 10.3413 1.46614 9.82086L1.46302 9.74578V2.62811L1.46614 2.24447C1.48686 1.74096 1.86894 1.33415 2.37022 1.33415H3.23308C4.01663 1.33415 4.65024 2.01477 4.65024 2.81637C4.65024 3.21449 4.49429 3.57385 4.24209 3.83652L2.04027 6.06976L4.10485 8.17289C4.36997 8.44781 4.53038 8.80851 4.53038 9.20262C4.53038 10.0624 3.76644 10.7597 2.8207 10.7597ZM9.16796 10.7532L5.31839 10.7521C5.31839 10.7521 5.76352 9.78922 5.76352 9.19415C5.76352 8.46853 5.5209 7.8191 5.14105 7.39045L3.82503 6.04793L5.16711 4.66084C5.5688 4.28344 5.83392 3.61574 5.83392 2.85625C5.83392 2.25449 5.66772 1.72136 5.39859 1.33415H6.33186C7.11474 1.33415 7.74902 2.01477 7.74902 2.81637C7.74902 3.21449 7.59373 3.57385 7.34221 3.83652L5.18115 6.04703L9.66812 10.6229C9.52509 10.7125 9.34642 10.7532 9.16796 10.7532ZM10.107 9.32404L6.89106 6.04637L8.42251 4.49041C8.73464 4.09941 8.93336 3.51236 8.93336 2.85625C8.93336 2.25093 8.76405 1.70376 8.4938 1.31677L9.17843 1.33816C9.69196 1.33816 10.1097 1.76035 10.1097 2.28234L10.107 9.32404Z" fill="#00529C"/>
<path d="M18.29 5.52469C18.3526 5.46208 18.4266 5.38143 18.5119 5.28274C18.597 5.18404 18.6777 5.06752 18.7538 4.93296C18.83 4.79839 18.8951 4.64846 18.9488 4.48248C19.0027 4.31672 19.0297 4.13961 19.0297 3.95135C19.0297 3.58397 18.9668 3.2411 18.8414 2.92273C18.7157 2.60459 18.523 2.32655 18.263 2.08883C18.003 1.85156 17.6782 1.66531 17.2881 1.53075C16.8982 1.3964 16.4431 1.32912 15.9233 1.32912H15.9091H14.4146H14.0256H12.4941V3.04326V8.97747V10.7422H16.2595C16.8062 10.7422 17.2834 10.6682 17.6916 10.5203C18.0993 10.3724 18.4379 10.1685 18.7068 9.90851C18.9757 9.64852 19.1751 9.34597 19.3052 9.00087C19.4351 8.65577 19.5002 8.28594 19.5002 7.89138C19.5002 7.36248 19.3792 6.89194 19.1373 6.47934C18.8951 6.06718 18.6126 5.74881 18.29 5.52469ZM16.6251 3.05396C16.7519 3.1023 16.8577 3.16513 16.9403 3.24422C17.1544 3.44963 17.2616 3.69514 17.2616 3.98076C17.2616 4.23986 17.2168 4.45396 17.1277 4.62351C17.0384 4.79327 16.949 4.92271 16.8599 5.01183H14.2424V2.94278H15.8694C16.1744 2.94278 16.4255 2.98043 16.6251 3.05396ZM16.3535 6.64086C16.8274 6.64086 17.1785 6.76362 17.4071 7.00869C17.6221 7.24997 17.7304 7.53469 17.7304 7.8642C17.7304 8.20373 17.6076 8.49358 17.3621 8.73463C17.1163 8.97569 16.7127 9.09644 16.1501 9.09644H15.94H14.2424V6.64086H16.3535Z" fill="#00529C"/>
<path d="M25.8863 6.68787C26.1686 6.49516 26.4041 6.27103 26.5923 6.01549C26.7806 5.75995 26.9194 5.47768 27.0092 5.16845C27.0987 4.85899 27.1437 4.54308 27.1437 4.22026C27.1437 3.79896 27.074 3.41131 26.9352 3.05707C26.796 2.70306 26.5877 2.39829 26.3098 2.14275C26.0318 1.88721 25.6845 1.68781 25.2676 1.54434C24.8508 1.40108 24.3689 1.32912 23.8222 1.32912H23.7729H20.1511H20.1172V10.7422H21.8993V7.24596H22.8929L25.3505 10.7422H27.4394L24.898 7.12498C25.2743 7.02651 25.6038 6.88081 25.8863 6.68787ZM23.8355 2.94278C23.9476 2.94278 24.0534 2.95014 24.1541 2.96283C24.4718 3.01073 24.7314 3.12413 24.9314 3.30437C25.2037 3.55011 25.3398 3.85132 25.3398 4.20823C25.3398 4.38713 25.3106 4.56112 25.2527 4.73067C25.1946 4.90043 25.1032 5.04992 24.9782 5.17914C24.853 5.3088 24.6924 5.41352 24.4961 5.49394C24.2996 5.57437 24.063 5.61447 23.7863 5.61447H21.8993V2.94278H23.8355Z" fill="#00529C"/>
<path d="M28.0669 1.32912V1.33179C28.0488 1.33135 28.0312 1.32912 28.0132 1.32912H27.998V1.32979V4.78013V7.25242V10.7422H29.8151V1.32912H28.0669Z" fill="#00529C"/>
</svg>
