<svg width="200" height="200" viewBox="0 0 200 200" fill="none" xmlns="http://www.w3.org/2000/svg">
<path d="M0 100C0 44.7715 44.7715 0 100 0C155.228 0 200 44.7715 200 100C200 155.228 155.228 200 100 200C44.7715 200 0 155.228 0 100Z" fill="#F5F5F5"/>
<path d="M100.435 65.9433C99.3133 65.9433 98.4027 65.0311 98.4027 63.9073V44.7422C98.4027 37.2014 92.2732 31.067 84.7391 31.067C77.2049 31.067 71.0705 37.2014 71.0705 44.7422V63.9073C71.0705 65.0311 70.1665 65.9433 69.0444 65.9433C67.9223 65.9433 67.0117 65.0311 67.0117 63.9073V44.7422C67.0117 34.9605 74.9607 27 84.7391 27C94.5108 27 102.468 34.9605 102.468 44.7422V63.9073C102.468 65.0311 101.557 65.9433 100.435 65.9433Z" fill="#252B37"/>
<mask id="mask0_41448_17923" style="mask-type:luminance" maskUnits="userSpaceOnUse" x="41" y="51" width="90" height="113">
<path d="M41 51.043H130.389V164.001H41V51.043Z" fill="white"/>
</mask>
<g mask="url(#mask0_41448_17923)">
<path d="M130.379 158.991C130.379 161.708 128.159 163.924 125.444 163.924H45.9298C43.2145 163.924 40.9951 161.708 40.9951 158.991L50.2414 56.0596C50.2414 53.3477 52.4624 51.125 55.176 51.125H116.196C118.911 51.125 121.131 53.3477 121.131 56.0596L130.379 158.991Z" fill="#717680"/>
</g>
<path d="M138.45 158.991C138.45 161.708 136.229 163.924 133.522 163.924H53.9994C51.2858 163.924 49.0664 161.708 49.0664 158.991L58.3193 56.0596C58.3193 53.3477 60.5321 51.125 63.2473 51.125H124.274C126.983 51.125 129.202 53.3477 129.202 56.0596L138.45 158.991Z" fill="#A4A7AE"/>
<path d="M82.4896 63.9082C82.4896 66.5176 80.3775 68.6313 77.778 68.6313C75.1719 68.6313 73.0615 66.5176 73.0615 63.9082C73.0615 61.3004 75.1719 59.1934 77.778 59.1934C80.3775 59.1934 82.4896 61.3004 82.4896 63.9082Z" fill="#BFC1C6"/>
<path d="M114.454 63.9082C114.454 66.5176 112.342 68.6313 109.743 68.6313C107.137 68.6313 105.026 66.5176 105.026 63.9082C105.026 61.3004 107.137 59.1934 109.743 59.1934C112.342 59.1934 114.454 61.3004 114.454 63.9082Z" fill="#BFC1C6"/>
<path d="M109.453 65.9433C108.331 65.9433 107.425 65.0311 107.425 63.9073V44.7422C107.425 37.2014 101.297 31.067 93.7566 31.067C86.2225 31.067 80.0947 37.2014 80.0947 44.7422V63.9073C80.0947 65.0311 79.1841 65.9433 78.062 65.9433C76.9399 65.9433 76.0293 65.0311 76.0293 63.9073V44.7422C76.0293 34.9605 83.9849 27 93.7566 27C103.535 27 111.486 34.9605 111.486 44.7422V63.9073C111.486 65.0311 110.575 65.9433 109.453 65.9433Z" fill="#252B37"/>
<path d="M144.011 116.524C142.888 116.524 141.978 115.618 141.978 114.496V95.3312C141.978 87.7887 135.848 81.6543 128.316 81.6543C120.782 81.6543 114.646 87.7887 114.646 95.3312V114.496C114.646 115.618 113.735 116.524 112.613 116.524C111.497 116.524 110.587 115.618 110.587 114.496V95.3312C110.587 85.5495 118.538 77.584 128.316 77.584C138.088 77.584 146.043 85.5495 146.043 95.3312V114.496C146.043 115.618 145.133 116.524 144.011 116.524Z" fill="#252B37"/>
<path d="M165.883 158.99C165.883 161.707 163.663 163.923 160.95 163.923H98.6915C95.9763 163.923 93.7568 161.707 93.7568 158.99L93.818 106.646C93.818 103.929 96.0374 101.713 98.751 101.713H159.773C162.486 101.713 164.708 103.929 164.708 106.646L165.883 158.99Z" fill="#BFC1C6"/>
<mask id="mask1_41448_17923" style="mask-type:luminance" maskUnits="userSpaceOnUse" x="101" y="101" width="73" height="63">
<path d="M101.62 101.387H173.947V164H101.62V101.387Z" fill="white"/>
</mask>
<g mask="url(#mask1_41448_17923)">
<path d="M173.954 158.99C173.954 161.707 171.734 163.923 169.019 163.923H106.763C104.048 163.923 101.828 161.707 101.828 158.99L101.888 106.646C101.888 103.929 104.109 101.713 106.822 101.713H167.844C170.558 101.713 172.777 103.929 172.777 106.646L173.954 158.99Z" fill="#E2E3E5"/>
</g>
<path d="M126.071 114.497C126.071 117.104 123.954 119.211 121.353 119.211C118.747 119.211 116.637 117.104 116.637 114.497C116.637 111.887 118.747 109.773 121.353 109.773C123.953 109.773 126.071 111.887 126.071 114.497Z" fill="#BFC1C6"/>
<path d="M158.03 114.497C158.03 117.104 155.918 119.211 153.311 119.211C150.712 119.211 148.602 117.104 148.602 114.497C148.602 111.887 150.712 109.773 153.311 109.773C155.918 109.773 158.03 111.887 158.03 114.497Z" fill="#BFC1C6"/>
<path d="M153.029 116.524C151.907 116.524 150.996 115.618 150.996 114.496V95.3312C150.996 87.7887 144.867 81.6543 137.333 81.6543C129.799 81.6543 123.671 87.7887 123.671 95.3312V114.496C123.671 115.618 122.76 116.524 121.638 116.524C120.516 116.524 119.605 115.618 119.605 114.496V95.3312C119.605 85.5495 127.556 77.584 137.333 77.584C147.106 77.584 155.062 85.5495 155.062 95.3312V114.496C155.062 115.618 154.151 116.524 153.029 116.524Z" fill="#252B37"/>
</svg>
