<svg width="30" height="10" viewBox="0 0 30 10" fill="none" xmlns="http://www.w3.org/2000/svg">
<path fill-rule="evenodd" clip-rule="evenodd" d="M21.9965 0.888601C21.4261 1.22975 20.0808 2.02675 19.5786 2.32355C19.2725 2.48461 18.5636 2.55493 18.1626 1.99651C18.1555 1.98642 17.6294 1.30742 17.6079 1.28186C17.5928 1.26379 17.2527 0.742703 16.4948 0.726411C16.3829 0.723669 15.8262 0.720604 15.2829 1.0395C14.5609 1.46558 12.8817 2.45718 12.8817 2.45718C12.8813 2.45718 12.8813 2.45807 12.8804 2.45807C12.1902 2.86601 11.6523 3.18361 11.6523 3.18361L12.2878 3.98972C12.585 4.37096 13.2553 4.6659 13.8367 4.32119C13.8367 4.32119 15.9846 3.03642 15.9925 3.03271C16.9214 2.50646 17.6382 2.50646 18.1139 2.70228C18.541 2.88867 18.9125 3.35306 18.9125 3.35306C18.9125 3.35306 19.398 3.97456 19.4836 4.08327C19.7599 4.43451 20.2171 4.29651 20.2171 4.29651C20.2171 4.29651 20.3865 4.27667 20.642 4.12005C20.642 4.12005 22.7225 2.87399 22.7238 2.87359C23.3845 2.47323 23.9904 2.39847 24.3 2.42791C25.27 2.51896 25.5713 3.21885 25.9918 3.70712C26.2395 3.99431 26.463 4.15739 26.8047 4.14916C27.0293 4.14425 27.283 4.00359 27.3204 3.97818L29.8118 2.49307C29.8118 2.49307 29.5561 2.09538 29.0326 1.47663C28.564 0.924571 28.0664 1.17435 27.6695 1.37735C27.5028 1.46251 26.8988 1.87754 26.3004 2.16708C25.874 2.37331 25.2615 2.31129 24.9259 1.88287C24.9058 1.85682 24.3627 1.17774 24.3057 1.09418C24.0865 0.810611 23.6588 0.556641 23.1108 0.556641C22.7775 0.556641 22.3994 0.650519 21.9965 0.888601Z" fill="url(#paint0_linear_43757_5299)"/>
<path fill-rule="evenodd" clip-rule="evenodd" d="M0.212873 6.69375C0.212873 6.25033 0.205065 5.87821 0.181641 5.54641H0.994306L1.03241 6.11645H1.05521C1.2394 5.81522 1.57624 5.45898 2.20456 5.45898C2.69499 5.45898 3.07805 5.74457 3.23866 6.17178H3.25444C3.38491 5.95813 3.53763 5.79998 3.71371 5.68876C3.92078 5.53859 4.15838 5.45898 4.46484 5.45898C5.08528 5.45898 5.71312 5.89418 5.71312 7.12895V9.4H4.79388V7.27162C4.79388 6.63068 4.5797 6.25033 4.12793 6.25033C3.80561 6.25033 3.56785 6.48817 3.46892 6.76529C3.44566 6.85998 3.4227 6.97877 3.4227 7.08878V9.4H2.50314V7.16838C2.50314 6.63068 2.29662 6.25033 1.85983 6.25033C1.50738 6.25033 1.27017 6.53568 1.18568 6.80416C1.14711 6.89974 1.13165 7.01023 1.13165 7.1208V9.4H0.212873V6.69375Z" fill="#003A70"/>
<path fill-rule="evenodd" clip-rule="evenodd" d="M9.29329 8.47421C9.29329 8.82222 9.3086 9.16192 9.34694 9.4H8.49624L8.43519 8.97279H8.41192C8.1822 9.27378 7.79149 9.48711 7.30887 9.48711C6.55789 9.48711 6.13672 8.92569 6.13672 8.33976C6.13672 7.36606 6.97148 6.87586 8.35062 6.88369V6.82013C8.35062 6.56681 8.25091 6.14766 7.59215 6.14766C7.22423 6.14766 6.84101 6.26646 6.58834 6.43236L6.40422 5.79982C6.68055 5.62537 7.16364 5.45898 7.75307 5.45898C8.94872 5.45898 9.29329 6.24291 9.29329 7.08136V8.47421ZM8.37442 7.51675C7.708 7.50078 7.07227 7.65111 7.07227 8.2368C7.07227 8.61626 7.30971 8.79071 7.6086 8.79071C7.98355 8.79071 8.2598 8.53739 8.34381 8.26051C8.36661 8.1893 8.37442 8.10986 8.37442 8.04679V7.51675Z" fill="#003A70"/>
<path fill-rule="evenodd" clip-rule="evenodd" d="M9.94678 6.69375C9.94678 6.25033 9.93835 5.87821 9.91602 5.54641H10.7427L10.789 6.12403H10.8116C10.9727 5.82369 11.3787 5.45898 11.9991 5.45898C12.6506 5.45898 13.3247 5.89418 13.3247 7.11314V9.4H12.3825V7.2242C12.3825 6.66988 12.1833 6.25033 11.6699 6.25033C11.2945 6.25033 11.0341 6.52737 10.9343 6.82029C10.9041 6.90756 10.8962 7.02652 10.8962 7.13653V9.4H9.94678V6.69375Z" fill="#003A70"/>
<path fill-rule="evenodd" clip-rule="evenodd" d="M17.4099 3.99805V8.31571C17.4099 8.7113 17.425 9.1394 17.4404 9.40022H16.5976L16.5599 8.79098H16.5443C16.322 9.21851 15.8692 9.48732 15.3259 9.48732C14.4376 9.48732 13.7325 8.70404 13.7325 7.51702C13.7247 6.227 14.5061 5.4592 15.4024 5.4592C15.9155 5.4592 16.2836 5.68107 16.4519 5.96618H16.4674V3.99805H17.4099ZM16.4688 7.15222C16.4688 7.0739 16.461 6.97849 16.4462 6.89962C16.3618 6.51975 16.0628 6.21094 15.6338 6.21094C15.0286 6.21094 14.6914 6.76517 14.6914 7.48531C14.6914 8.18939 15.0286 8.70386 15.6261 8.70386C16.009 8.70386 16.3463 8.43489 16.4382 8.01559C16.461 7.92816 16.4688 7.83332 16.4688 7.73008V7.15222Z" fill="#003A70"/>
<path fill-rule="evenodd" clip-rule="evenodd" d="M18.0742 9.40023H19.0252V5.54688H18.0742V9.40023Z" fill="#003A70"/>
<path fill-rule="evenodd" clip-rule="evenodd" d="M19.693 6.78862C19.693 6.26656 19.685 5.89412 19.6621 5.54627H20.482L20.512 6.28197H20.5438C20.7274 5.73596 21.1642 5.54627 21.5624 5.54627C21.6541 5.54627 21.7077 5.53006 21.7845 5.54627V6.40117C21.7077 6.38536 21.6236 6.36955 21.5086 6.36955C21.0567 6.36955 20.75 6.66998 20.6658 7.10493C20.6509 7.19203 20.6355 7.29535 20.6355 7.40665V9.4001H19.693V6.78862Z" fill="#003A70"/>
<path fill-rule="evenodd" clip-rule="evenodd" d="M22.2207 9.40023H23.1702V5.54688H22.2207V9.40023Z" fill="#003A70"/>
<defs>
<linearGradient id="paint0_linear_43757_5299" x1="11.6523" y1="4.47385" x2="29.8118" y2="4.47385" gradientUnits="userSpaceOnUse">
<stop stop-color="#FFCA06"/>
<stop offset="0.330844" stop-color="#FBAA18"/>
<stop offset="0.694742" stop-color="#FFC907"/>
<stop offset="1" stop-color="#FAA619"/>
</linearGradient>
</defs>
</svg>
